<?xml version="1.0" ?>
<!DOCTYPE svg  PUBLIC '-//W3C//DTD SVG 1.1//EN'  'http://www.w3.org/Graphics/SVG/1.1/DTD/svg11.dtd'>
<!-- Uploaded to: SVG Repo, www.svgrepo.com, Generator: SVG Repo Mixer Tools -->
<svg fill="#000000" width="800px" height="800px" viewBox="0 0 100 100" style="fill-rule:evenodd;clip-rule:evenodd;stroke-linejoin:round;stroke-miterlimit:2;" version="1.1" xml:space="preserve" xmlns="http://www.w3.org/2000/svg" xmlns:serif="http://www.serif.com/" xmlns:xlink="http://www.w3.org/1999/xlink">
<g id="Icon">
<path d="M46.424,7.365c-0.023,0.025 -0.045,0.051 -0.066,0.078c-5.559,6.535 -10.437,14.724 -11.863,23.284c-0.467,2.798 -1.189,6.465 0.028,9.243c-0.311,1.605 -0.636,3.223 -0.952,4.85c-0.078,-0.091 -0.158,-0.18 -0.24,-0.269c-0.252,-0.276 -0.518,-0.544 -0.781,-0.815c-0.043,-0.164 -0.13,-0.32 -0.259,-0.45c-0.841,-0.841 -1.327,-2.289 -1.706,-3.382c-0.856,-2.468 -1.476,-5.062 -2.427,-7.487c-1.411,-3.598 -3.559,-7.094 -5.636,-10.349c-0.545,-0.854 -1.34,-1.599 -1.835,-2.466c-0.274,-0.479 -0.885,-0.646 -1.364,-0.372c-0.447,0.255 -0.622,0.804 -0.422,1.266c-0.013,0.064 -0.019,0.13 -0.019,0.198c-0,1.012 -0.264,1.981 -0.163,3.012c0.193,1.964 0.972,3.846 1.375,5.771c0.724,3.461 1.23,6.412 3.494,9.294c0.619,0.787 1.422,1.384 2.261,1.942c0.706,0.469 1.438,0.908 2.05,1.468c1.09,1 1.907,2.271 3.21,3.015c0.046,0.027 0.094,0.049 0.143,0.068c0.204,0.211 0.407,0.422 0.604,0.637c0.494,0.54 0.949,1.103 1.167,1.82c-0.692,3.801 -1.262,7.64 -1.421,11.477c-0.329,-0.834 -0.657,-1.67 -1.014,-2.501c0.039,-0.153 0.042,-0.313 0.007,-0.467c-0.006,-0.078 -0.022,-0.157 -0.048,-0.234c-0.062,-0.186 -0.022,-0.405 -0.002,-0.619c0.025,-0.27 0.054,-0.536 0.054,-0.779c-0,-1.273 -0.026,-2.671 -0.359,-3.906c-0.227,-0.844 -0.698,-1.656 -1.277,-2.43c-0.748,-0.999 -1.683,-1.935 -2.343,-2.826c-1.016,-1.372 -1.347,-2.924 -2.127,-4.381c-0.832,-1.553 -2.181,-2.811 -3.628,-3.776c-0.568,-0.378 -1.213,-0.878 -1.89,-1.047c-0.013,-0.003 -0.026,-0.006 -0.039,-0.009l-0.005,-0.001c-0.077,-0.016 -0.156,-0.022 -0.235,-0.019l-0.004,-0c-0.079,0.003 -0.157,0.016 -0.232,0.037l-0.006,0.002c-0.012,0.003 -0.025,0.007 -0.038,0.011c-0.165,0.055 -0.306,0.149 -0.417,0.269l-0.001,0.001c-0.111,0.12 -0.194,0.268 -0.236,0.437c-0.003,0.012 -0.006,0.025 -0.009,0.038l-0.001,0.006c-0.015,0.076 -0.022,0.155 -0.019,0.235l0,0.003c0.003,0.08 0.016,0.158 0.037,0.233l0.002,0.005c0.004,0.013 0.008,0.026 0.012,0.038c0.43,1.293 1.249,2.464 1.68,3.787c1.293,3.964 2.339,8.428 4.847,11.838c1.055,1.435 2.717,2.349 4.073,3.523c1.172,2.522 1.961,5.118 3.272,7.589c0.053,0.789 0.129,1.577 0.231,2.364c0.108,0.836 0.252,1.661 0.422,2.476c-0.021,-0.015 -0.041,-0.029 -0.062,-0.044c-0.016,-0.013 -0.032,-0.025 -0.049,-0.036l-0.045,-0.032c-0.034,-0.025 -0.069,-0.05 -0.103,-0.074l-0.09,-0.065c-2.032,-2.211 -3.201,-5.327 -5.018,-7.679c-1.496,-1.936 -3.445,-3.247 -5.152,-4.954c-1.611,-1.612 -3.039,-2.424 -5.14,-3.353c-0.262,-0.116 -0.626,-0.397 -0.984,-0.599c-0.413,-0.233 -0.833,-0.374 -1.18,-0.384c-0.064,-0.003 -0.13,0.001 -0.196,0.012l-0.004,0.001c-0.097,0.016 -0.19,0.046 -0.277,0.088c-0.151,0.074 -0.277,0.183 -0.372,0.314c-0.094,0.13 -0.157,0.285 -0.18,0.452c-0.013,0.095 -0.012,0.194 0.004,0.292c0.01,0.061 0.025,0.12 0.046,0.177c0.353,1.046 1.028,1.951 1.778,2.809c0.636,0.727 1.328,1.418 1.828,2.179c0.551,0.838 0.878,1.79 1.243,2.724c0.43,1.104 0.908,2.183 1.696,3.103c0.74,0.862 1.728,1.351 2.786,1.731c0.844,0.302 1.734,0.53 2.496,0.949c1.935,1.064 3.528,2.752 5.481,3.834c0.01,0.01 0.02,0.02 0.03,0.03c0.131,0.131 0.289,0.218 0.457,0.261c0.646,0.47 1.282,0.965 1.819,1.536c0.675,2.404 1.473,4.767 2.133,7.176c0.008,0.035 0.017,0.069 0.028,0.103c0.243,0.89 0.466,1.785 0.657,2.692c-0.194,3.192 -0.167,6.418 0.008,9.611c0.03,0.551 0.502,0.974 1.053,0.944c0.551,-0.03 0.974,-0.502 0.944,-1.053c-0.175,-3.188 -0.199,-6.41 0.004,-9.595c0.081,-1.263 0.036,-2.581 0.542,-3.77c1.346,-3.169 3.649,-5.61 5.967,-8.07c0.01,-0 0.019,-0.001 0.028,-0.001c2.809,-0.147 5.521,0.373 8.258,-0.352l0.003,0.001c1.958,0.217 4.165,0.528 6.134,0.246c1.24,-0.177 2.403,-0.714 3.628,-0.972c3.996,-0.842 8.308,-1.675 12.406,-1.766c2.11,-0.047 4.163,-0.395 6.25,-0.688c0.313,-0.044 1.541,-0.095 2.136,-0.334c0.413,-0.165 0.667,-0.429 0.793,-0.679c0.246,-0.494 0.046,-1.095 -0.448,-1.342c-0.025,-0.013 -0.051,-0.025 -0.077,-0.035c-0.18,-0.173 -0.425,-0.28 -0.694,-0.28c-2.439,0 -4.749,-0.448 -7.17,-0.593c-3.28,-0.197 -6.607,-0.09 -9.888,-0.033c-2.584,0.044 -5.103,0.101 -7.611,0.81c-1.252,0.355 -2.297,1.031 -3.302,1.772c-0.864,0.637 -1.696,1.324 -2.661,1.807c-0.118,0.059 -0.219,0.138 -0.301,0.231c-1.869,0.446 -3.728,0.268 -5.619,0.205c1.006,-1.081 2.04,-2.151 3.1,-3.198l0.004,-0.003c2.694,-1.946 5.698,-2.92 8.893,-3.58c1.379,0.341 3.032,0.041 4.418,-0.07c1.843,-0.148 3.921,-0.178 5.713,-0.61c1.917,-0.463 3.687,-1.442 5.614,-1.913c2.476,-0.605 5.025,-0.735 7.465,-1.548c0.372,-0.124 0.623,-0.446 0.674,-0.81c0.115,-0.18 0.173,-0.398 0.152,-0.626c-0.05,-0.55 -0.537,-0.956 -1.086,-0.906c-2.141,0.195 -4.274,-0.22 -6.429,-0.085c-3.477,0.217 -7.163,0.961 -10.511,1.905c-1.69,0.477 -3.407,0.895 -4.922,1.824c-0.248,0.152 -0.695,0.379 -1.011,0.634c-0.077,0.061 -0.148,0.126 -0.213,0.192c-1.235,0.249 -2.442,0.54 -3.618,0.905c2.186,-1.824 4.473,-3.515 6.864,-5.004c0.806,-0.334 1.736,-0.518 2.644,-0.744c1.108,-0.277 2.184,-0.615 3.056,-1.212c2.627,-1.797 4.854,-4.423 7.018,-6.722c1.978,-2.102 4.158,-4.03 6.173,-6.1c1.661,-1.706 3.369,-3.13 4.571,-5.225c0.191,-0.334 0.544,-0.843 0.797,-1.341c0.191,-0.376 0.323,-0.754 0.371,-1.087c0.191,-0.347 0.165,-0.791 -0.102,-1.117c-0.349,-0.427 -0.98,-0.49 -1.407,-0.141c-2.235,1.829 -4.876,3.03 -7.226,4.691c-1.374,0.971 -2.546,2.172 -3.853,3.224c-3.33,2.681 -6.706,5.424 -9.382,8.787c-1.081,1.358 -2.297,2.639 -3.295,4.06c-0.336,0.478 -0.841,1.072 -1.106,1.662c-5.698,3.666 -10.819,8.422 -15.388,13.399c-2.695,2.936 -5.565,5.69 -7.309,9.297c-0.036,-1.782 0.245,-3.541 0.546,-5.334c0.158,-0.944 0.335,-1.903 0.535,-2.865c0.014,-0.021 0.027,-0.044 0.039,-0.067c1.256,-2.376 3.7,-4.103 5.875,-5.703c0.613,-0.154 1.226,-0.45 1.818,-0.833c1.089,-0.705 2.111,-1.704 2.913,-2.313c2.479,-1.88 4.558,-4.109 6.889,-6.158c2.179,-1.914 4.509,-3.67 6.567,-5.728c0.321,-0.321 0.378,-0.807 0.17,-1.187c-0.014,-0.109 -0.046,-0.218 -0.098,-0.322c-0.247,-0.494 -0.848,-0.694 -1.341,-0.447c-1.755,0.877 -3.8,1.063 -5.526,1.948c-1.247,0.639 -2.271,1.624 -3.362,2.488c-2.526,1.999 -4.845,4.085 -6.841,6.622c-0.941,1.196 -2.584,2.849 -2.964,4.367c-0.02,0.08 -0.029,0.159 -0.03,0.237c-0.038,0.077 -0.067,0.159 -0.084,0.245c-0.975,0.73 -1.971,1.496 -2.888,2.331c0.703,-2.318 1.599,-4.568 2.773,-6.614c0.603,-1.052 1.339,-2.007 2.08,-2.957c0.124,-0.057 0.238,-0.139 0.334,-0.248c1.87,-2.113 4.43,-3.51 6.652,-5.2c2.307,-1.755 4.088,-3.984 6.079,-6.048c0.027,-0.006 0.054,-0.013 0.081,-0.021c0.228,-0.068 0.48,-0.065 0.732,-0.065c0.402,-0 0.808,0.007 1.187,-0.05c1.192,-0.179 2.334,-0.399 3.481,-0.796c4.873,-1.687 9.339,-5.017 13.419,-8.098c1.299,-0.981 2.574,-1.994 3.851,-3.001c0.262,-0.207 0.912,-0.598 1.335,-0.979c0.329,-0.295 0.547,-0.615 0.635,-0.88c0.163,-0.488 -0.072,-1.013 -0.528,-1.224c-0.254,-0.222 -0.614,-0.311 -0.959,-0.203c-4.535,1.417 -8.591,3.377 -12.823,5.493c-2.148,1.074 -4.35,2.027 -6.355,3.364c-1.403,0.935 -2.65,2.12 -3.923,3.22c-0.23,0.198 -0.815,0.611 -1.15,1.008c-0.237,0.282 -0.376,0.579 -0.427,0.85c-1.913,1.993 -3.623,4.147 -5.846,5.838c-0.718,0.547 -1.469,1.066 -2.221,1.589c1.193,-2.165 2.316,-4.378 3.495,-6.547c0.117,-0.04 0.228,-0.102 0.327,-0.188c1.596,-1.367 3.573,-2.283 5.093,-3.803c2.466,-2.465 3.712,-5.686 5.83,-8.422c2.779,-3.589 6.179,-6.587 9.33,-9.831c1.292,-1.33 2.687,-2.863 3.552,-4.503c0.244,-0.461 0.524,-1.283 0.867,-1.973c0.138,-0.276 0.256,-0.542 0.434,-0.66c0.329,-0.22 0.486,-0.601 0.436,-0.969c0.04,-0.299 -0.055,-0.613 -0.284,-0.842c-0.39,-0.39 -1.024,-0.39 -1.414,-0c-2.756,2.755 -6.205,4.918 -9.345,7.19c-1.264,0.914 -2.608,1.646 -3.749,2.728c-3.005,2.849 -4.441,6.436 -6.809,9.71c-1.619,2.238 -3.248,4.302 -4.545,6.753c-0.476,0.898 -1.128,2.284 -1.223,3.383c-1.714,3.125 -3.294,6.355 -5.119,9.409c-1.026,1.716 -2.384,3.187 -3.515,4.826c-0.009,-0.564 -0.023,-1.128 -0.03,-1.688c0.74,-0.807 1.385,-2.229 1.798,-3.086c0.554,-1.152 1.255,-2.56 1.408,-3.836c0.397,-3.304 -0.106,-6.479 0.719,-9.782c0.15,-0.6 0.18,-1.372 0.458,-1.926c0.246,-0.494 0.046,-1.095 -0.448,-1.342c-0.242,-0.121 -0.51,-0.135 -0.75,-0.058c-0.357,0.038 -0.681,0.267 -0.824,0.623c-0.963,2.408 -2.368,4.595 -3.479,6.863c-1.199,2.446 -2.066,4.984 -1.856,7.925c0.087,1.215 0.212,2.485 0.535,3.662c0.059,0.215 0.158,0.71 0.33,1.034c0.035,0.066 0.073,0.128 0.114,0.185c0.031,1.731 0.113,3.497 -0.111,5.202c-0.009,0.066 -0.011,0.131 -0.006,0.196c-1.638,3.749 -2.609,7.905 -3.271,11.843c-0.087,0.518 -0.171,1.034 -0.247,1.549c-0.617,-2.109 -1.16,-4.242 -1.447,-6.461c-0.787,-6.093 0.008,-12.265 1.121,-18.335c0.036,-0.101 0.056,-0.208 0.058,-0.317c0.479,-2.582 1.011,-5.145 1.499,-7.675c0.051,-0.056 0.097,-0.117 0.136,-0.185c0.315,-0.552 0.384,-1.244 0.616,-1.834c0.614,-1.564 1.179,-3.14 1.977,-4.626c1.214,-2.261 2.756,-4.355 3.857,-6.679c0.592,-1.249 0.91,-2.602 1.367,-3.899c0.94,-2.67 1.816,-5.164 2.455,-7.933c0.315,-1.364 0.983,-2.651 1.185,-4.041c0.119,-0.816 0.037,-1.632 0.015,-2.449c0.233,-0.408 0.152,-0.938 -0.218,-1.255c-0.419,-0.359 -1.051,-0.31 -1.41,0.109c-0.035,0.041 -0.07,0.081 -0.104,0.121Zm28.358,58.199c-2.968,-0.134 -5.968,-0.039 -8.932,0.012c-2.41,0.042 -4.761,0.074 -7.1,0.736c-1.014,0.287 -1.847,0.857 -2.661,1.457c-0.251,0.185 -0.499,0.373 -0.749,0.559c1.101,0.099 2.215,0.14 3.257,-0.008c1.197,-0.171 2.316,-0.701 3.499,-0.95c4.086,-0.861 8.494,-1.703 12.686,-1.806Zm-57.307,-10.093c0.476,0.532 0.938,1.065 1.309,1.629c0.628,0.954 1.019,2.032 1.435,3.096c0.349,0.895 0.713,1.783 1.352,2.528c0.509,0.594 1.215,0.889 1.943,1.15c0.943,0.339 1.931,0.611 2.784,1.08c0.404,0.222 0.793,0.472 1.174,0.739c-0.666,-1.154 -1.333,-2.297 -2.113,-3.305c-1.443,-1.868 -3.337,-3.117 -4.983,-4.763c-0.961,-0.961 -1.852,-1.593 -2.901,-2.154Zm40.513,-6.428c-0.585,0.182 -1.157,0.39 -1.698,0.667c-1.13,0.58 -2.043,1.494 -3.032,2.277c-2.402,1.901 -4.613,3.878 -6.512,6.291c-0.427,0.543 -1.023,1.181 -1.56,1.856l0.007,-0.006c0.864,-0.638 1.663,-1.401 2.316,-1.896c2.44,-1.851 4.482,-4.05 6.777,-6.067c1.211,-1.064 2.47,-2.077 3.702,-3.122Zm15.122,8.17c-2.772,0.315 -5.613,0.93 -8.238,1.67c-0.787,0.222 -1.582,0.422 -2.356,0.679c0.021,-0.002 0.041,-0.003 0.061,-0.005c1.743,-0.139 3.709,-0.151 5.404,-0.56c1.755,-0.424 3.387,-1.281 5.129,-1.784Zm-52.014,-17.237c0.1,0.232 0.191,0.468 0.269,0.709c1.229,3.768 2.174,8.032 4.557,11.273c0.702,0.955 1.698,1.655 2.676,2.37c-0.002,-1.029 -0.024,-2.133 -0.289,-3.116c-0.211,-0.783 -0.737,-1.511 -1.309,-2.214c-0.676,-0.829 -1.428,-1.617 -1.987,-2.372c-1.077,-1.454 -1.456,-3.083 -2.283,-4.626c-0.411,-0.767 -0.984,-1.439 -1.634,-2.024Zm61.24,-4.243c-1.299,0.781 -2.618,1.534 -3.858,2.411c-1.339,0.947 -2.479,2.123 -3.753,3.149c-3.216,2.589 -6.486,5.227 -9.071,8.474c-0.86,1.081 -1.809,2.109 -2.659,3.203c0.198,-0.049 0.397,-0.097 0.594,-0.146c0.87,-0.217 1.726,-0.452 2.411,-0.921c2.51,-1.718 4.623,-4.246 6.69,-6.443c1.986,-2.11 4.174,-4.046 6.197,-6.124c1.196,-1.228 2.433,-2.284 3.449,-3.603Zm-39.921,4.842c-0.272,0.509 -0.539,1.019 -0.79,1.533c-1.046,2.134 -1.84,4.338 -1.657,6.902c0.055,0.77 0.122,1.565 0.259,2.337c0.283,-0.539 0.52,-1.123 0.716,-1.529c0.466,-0.967 1.096,-2.134 1.225,-3.206c0.245,-2.042 0.164,-4.035 0.247,-6.037Zm33.75,-9.077c-2.615,1.085 -5.139,2.324 -7.732,3.621c-2.074,1.037 -4.205,1.949 -6.141,3.239c-1.157,0.771 -2.198,1.727 -3.244,2.649c0.991,-0.154 1.947,-0.343 2.906,-0.675c4.679,-1.62 8.95,-4.846 12.868,-7.804c0.45,-0.34 0.897,-0.684 1.343,-1.03Zm-55.473,-8.571c-0.006,0.193 -0.002,0.387 0.018,0.584c0.185,1.892 0.954,3.702 1.342,5.556c0.658,3.144 1.051,5.85 3.109,8.468c0.487,0.62 1.134,1.073 1.795,1.512c0.537,0.357 1.083,0.703 1.594,1.084c-0.774,-2.313 -1.368,-4.723 -2.254,-6.983c-1.365,-3.48 -3.451,-6.857 -5.46,-10.004c-0.047,-0.073 -0.095,-0.145 -0.144,-0.217Zm51.899,-6.568c-1.807,1.353 -3.692,2.617 -5.482,3.912c-1.191,0.862 -2.469,1.539 -3.545,2.559c-2.911,2.761 -4.27,6.259 -6.564,9.431c-1.564,2.162 -3.146,4.15 -4.399,6.516c-0.098,0.186 -0.212,0.398 -0.326,0.625c0.992,-0.653 1.992,-1.305 2.842,-2.155c2.405,-2.405 3.596,-5.563 5.663,-8.232c2.824,-3.648 6.273,-6.703 9.476,-10c0.791,-0.814 1.632,-1.705 2.335,-2.656Zm-26.497,-5.428c-4.571,5.86 -8.413,12.845 -9.627,20.125c-0.22,1.323 -0.526,2.858 -0.613,4.385c-0.017,0.281 -0.026,0.562 -0.025,0.841c0.507,-1.303 1.021,-2.599 1.686,-3.837c1.198,-2.231 2.725,-4.295 3.812,-6.589c0.561,-1.186 0.853,-2.475 1.287,-3.708c0.915,-2.598 1.771,-5.023 2.393,-7.718c0.274,-1.186 0.838,-2.307 1.087,-3.499Z"/>
</g>
</svg>